<?xml version="1.0" encoding="UTF-8"?>
<svg xmlns="http://www.w3.org/2000/svg" width="16" height="16" viewBox="0 0 16 16">
  <path fill="#ED5E5D" fill-rule="evenodd" d="M7.83568339,7.02657792 L5.29382606,3.61646926 L3.61646926,4.28687816 L6.26146837,7.83520927 L3.61646926,11.3844886 L5.29382606,12.0548975 L7.83568339,8.64402237 L10.3775407,12.0548975 L12.0548975,11.3844886 L9.40989841,7.83520927 L12.0548975,4.28687816 L10.3775407,3.61646926 L7.83568339,7.02657792 Z M7.80000043,15.6000009 C3.49929544,15.6000009 5.06261699e-14,12.1007054 5.06261699e-14,7.80000043 C5.06261699e-14,3.49929544 3.49929544,-1.82076576e-13 7.80000043,-1.82076576e-13 C12.1007054,-1.82076576e-13 15.6000009,3.49929544 15.6000009,7.80000043 C15.6000009,12.1007054 12.1007054,15.6000009 7.80000043,15.6000009 Z"/>
</svg>
