<?xml version="1.0" encoding="UTF-8"?> <svg xmlns="http://www.w3.org/2000/svg" width="289" height="446" viewBox="0 0 289 446" fill="none"><g clip-path="url(#clip0_80_322)"><circle cx="126" cy="415" r="92" fill="#F3CE47"></circle><path d="M120.777 194.511H421.259C422.511 194.511 423.525 195.525 423.525 196.777V401.662C423.525 402.913 422.511 403.928 421.259 403.928H138.247H120.777C119.525 403.928 118.511 402.913 118.511 401.662L118.511 374.905V196.777C118.511 195.525 119.525 194.511 120.777 194.511Z" fill="#FDFAEC" stroke="#2E2E2E" stroke-width="3.0214"></path><mask id="path-3-inside-1_80_322" fill="white"><rect x="132.884" y="290.06" width="78.694" height="89.3283" rx="1.5107"></rect></mask><rect x="132.884" y="290.06" width="78.694" height="89.3283" rx="1.5107" fill="#F3623F" stroke="#2E2E2E" stroke-width="6.04279" stroke-linejoin="round" mask="url(#path-3-inside-1_80_322)"></rect><mask id="path-4-inside-2_80_322" fill="white"><rect x="132.884" y="231.571" width="78.694" height="47.8545" rx="1.5107"></rect></mask><rect x="132.884" y="231.571" width="78.694" height="47.8545" rx="1.5107" stroke="#2E2E2E" stroke-width="6.04279" stroke-linejoin="round" mask="url(#path-4-inside-2_80_322)"></rect><mask id="path-5-inside-3_80_322" fill="white"><rect x="222.427" y="231.523" width="78.5563" height="148.048" rx="1.5107"></rect></mask><rect x="222.427" y="231.523" width="78.5563" height="148.048" rx="1.5107" stroke="#2E2E2E" stroke-width="6.04279" stroke-linejoin="round" mask="url(#path-5-inside-3_80_322)"></rect><circle cx="137.483" cy="209.496" r="3.08383" fill="#2E2E2E"></circle><circle cx="146.175" cy="209.496" r="3.08383" fill="#2E2E2E"></circle><circle cx="154.868" cy="209.496" r="3.08383" fill="#2E2E2E"></circle><path d="M202.889 390.115L202.152 390.209L201.777 390.852L183.474 422.222L175.521 350.026L238.908 385.486L202.889 390.115Z" fill="#BA5AE2" stroke="#2E2E2E" stroke-width="3.0214"></path><path d="M168.039 338.736L151.831 317.001" stroke="#2E2E2E" stroke-width="3.0214" stroke-linecap="round"></path><path d="M183.036 339.666L190.165 322.836" stroke="#2E2E2E" stroke-width="3.0214" stroke-linecap="round"></path><path d="M146.88 353.965L162.438 353" stroke="#2E2E2E" stroke-width="3.0214" stroke-linecap="round"></path><path d="M173.752 336.558L172.906 318.279" stroke="#2E2E2E" stroke-width="3.0214" stroke-linecap="round"></path><path d="M163.762 345.102L143.818 336.419" stroke="#2E2E2E" stroke-width="3.0214" stroke-linecap="round"></path><rect x="53.5" y="59.5" width="162.04" height="108.713" rx="1.5" stroke="#2E2E2E" stroke-width="3"></rect><circle cx="128" cy="116" r="13" fill="#F3CE47"></circle><path d="M63.7244 135.398C63.7244 135.398 67.4474 109.507 74.9871 109.507C82.5268 109.507 83.8393 148.091 103.175 148.091C122.511 148.091 132.71 90.5589 145.816 89.874C158.921 89.189 159.322 117.299 171.052 117.299C182.781 117.299 196.175 63.7053 208.924 76.0679" stroke="#2E2E2E" stroke-width="3"></path><circle cx="221.5" cy="58.5" r="40.5" fill="#F3CE47"></circle><path d="M252.5 57.9823C252.5 74.8164 238.845 88.4646 222 88.4646C205.155 88.4646 191.5 74.8164 191.5 57.9823C191.5 41.1482 205.155 27.5 222 27.5C238.845 27.5 252.5 41.1482 252.5 57.9823Z" fill="#F3CE47" stroke="#2E2E2E" stroke-width="3"></path><path d="M89.5 263.982C89.5 280.816 75.8455 294.465 59 294.465C42.1545 294.465 28.5 280.816 28.5 263.982C28.5 247.148 42.1545 233.5 59 233.5C75.8455 233.5 89.5 247.148 89.5 263.982Z" stroke="#2E2E2E" stroke-width="3"></path><path d="M231 62.9378C231 58.6124 227.423 56.8134 223.962 55.7416L221.462 54.9761C219.385 54.3636 219.231 53.3684 219.231 52.8708C219.231 51.6077 220.231 50.6507 221.808 50.6507C223.423 50.6507 224.346 51.6842 224.308 53.2919H230.269C230.346 49.1962 227.538 46.3254 223.308 45.7895V42H220.423V45.7895C216.192 46.3254 213.192 49.1579 213.192 52.9856C213.192 55.244 214.231 58.5359 219.692 60.067L222.538 60.9474C224.577 61.5981 224.962 62.5167 224.962 63.2823C224.962 64.5837 223.962 65.5407 222.154 65.5407C220.115 65.5407 218.962 64.5455 218.962 62.7464H213C213 66.8038 215.923 69.7512 220.423 70.2871V73.9617L223.308 74V70.2871C227.308 69.866 231 67.5694 231 62.9378Z" fill="#2E2E2E"></path><path fill-rule="evenodd" clip-rule="evenodd" d="M224.308 53.2919C224.309 53.2273 224.309 53.1637 224.308 53.101C224.304 52.9627 224.293 52.8289 224.275 52.7002C224.097 51.4351 223.215 50.6507 221.808 50.6507C220.231 50.6507 219.231 51.6077 219.231 52.8708C219.231 53.3525 219.375 54.3004 221.268 54.9161C221.331 54.9365 221.395 54.9565 221.462 54.9761L223.962 55.7416C224.077 55.7773 224.192 55.8138 224.308 55.8512C224.723 55.9858 225.138 56.1316 225.547 56.2919C228.435 57.4239 231 59.2751 231 62.9378C231 67.5248 227.378 69.8216 223.423 70.2744C223.385 70.2788 223.346 70.283 223.308 70.2871V74L220.423 73.9617V70.2871C220.384 70.2825 220.346 70.2777 220.308 70.2728C217.073 69.8554 214.669 68.1825 213.605 65.7464C213.21 64.843 213 63.8346 213 62.7464H218.962C218.962 62.827 218.964 62.906 218.968 62.9833C219.067 64.6326 220.207 65.5407 222.154 65.5407C223.962 65.5407 224.962 64.5837 224.962 63.2823C224.962 62.5167 224.577 61.5981 222.538 60.9474L219.692 60.067C219.439 59.9961 219.196 59.9214 218.962 59.8432C218.867 59.8115 218.773 59.7792 218.681 59.7464C214.1 58.1117 213.192 55.097 213.192 52.9856C213.192 49.1928 216.138 46.3771 220.308 45.8047C220.346 45.7994 220.385 45.7944 220.423 45.7895V42H223.308V45.7895C223.346 45.7944 223.385 45.7994 223.423 45.8047C226.466 46.2233 228.756 47.8592 229.741 50.2919C230.068 51.1002 230.251 51.9965 230.269 52.9654C230.271 53.0733 230.271 53.1822 230.269 53.2919H224.308ZM216.271 52.2154C216.218 52.4688 216.192 52.7266 216.192 52.9856C216.192 53.5165 216.286 54.0743 216.558 54.607C216.279 53.9092 216.231 53.2813 216.231 52.8708C216.231 52.6501 216.244 52.4312 216.271 52.2154ZM227.372 60.9512C227.817 61.7595 227.962 62.5802 227.962 63.2823C227.962 63.4158 227.957 63.549 227.947 63.6816C227.982 63.4506 228 63.2033 228 62.9378C228 62.0788 227.774 61.4616 227.372 60.9512Z" fill="#2E2E2E"></path><path d="M43.875 266.812C43.875 260.488 47.0375 253.888 50.75 253.888C52.8125 253.888 54.4625 255.125 57.075 258.837C54.6 262.687 53.0875 265.025 53.0875 265.025C49.7875 270.25 48.6875 271.35 46.9 271.35C45.1125 271.487 43.875 269.838 43.875 266.812ZM65.4625 264.475L63.125 260.625C62.575 259.663 61.8875 258.7 61.3375 257.875C63.4 254.713 65.05 253.062 67.1125 253.062C71.2375 253.062 74.5375 259.25 74.5375 266.95C74.5375 269.838 73.575 271.487 71.65 271.487C69.725 271.487 69.0375 270.25 65.4625 264.475ZM59.55 255.125C56.525 251.137 53.9125 249.625 50.8875 249.625C44.5625 249.625 39.75 258.012 39.75 266.812C39.75 272.312 42.3625 275.75 46.7625 275.75C49.925 275.75 52.125 274.238 56.25 267.088C56.25 267.088 57.9 264.062 59.1375 262C59.55 262.688 59.9625 263.375 60.375 264.2L62.3 267.5C66.0125 273.825 68.075 275.888 71.7875 275.888C76.05 275.888 78.3875 272.312 78.3875 266.675C78.25 257.325 73.3 249.625 67.3875 249.625C64.225 249.625 61.75 252.1 59.55 255.125Z" fill="#2E2E2E"></path></g><defs><clipPath id="clip0_80_322"><rect width="289" height="446" fill="white"></rect></clipPath></defs></svg> 