<?xml version="1.0" encoding="UTF-8"?> <svg xmlns="http://www.w3.org/2000/svg" width="290" height="446" viewBox="0 0 290 446" fill="none"><g clip-path="url(#clip0_80_166)"><g clip-path="url(#clip1_80_166)"><circle cx="207.5" cy="428.5" r="59.5" fill="#F3CE47"></circle><path d="M210.259 262.034L210.259 405.884C210.259 413.226 204.306 419.179 196.964 419.179H128.472C121.129 419.179 115.177 413.226 115.177 405.884L115.177 262.034C115.177 254.691 121.129 248.739 128.472 248.739L196.964 248.739C204.306 248.739 210.259 254.691 210.259 262.034Z" fill="#FDFAEC" stroke="#2E2E2E" stroke-width="2.97433"></path><path d="M127.957 369.06L195.177 369.134" stroke="#2E2E2E" stroke-width="2.97433" stroke-linecap="round"></path><path d="M127.957 380.827L185.372 380.9" stroke="#2E2E2E" stroke-width="2.97433" stroke-linecap="round"></path><mask id="path-5-inside-1_80_166" fill="white"><rect x="125.995" y="276.099" width="73.543" height="78.4458" rx="1.73908"></rect></mask><rect x="125.995" y="276.099" width="73.543" height="78.4458" rx="1.73908" fill="#BA5AE2" stroke="#2E2E2E" stroke-width="5.94865" mask="url(#path-5-inside-1_80_166)"></rect><path d="M161.471 315.022L186.771 298.359" stroke="#2E2E2E" stroke-width="3.37599" stroke-linecap="round"></path><path d="M159.456 331.69L177.765 340.739" stroke="#2E2E2E" stroke-width="3.37599" stroke-linecap="round"></path><path d="M145.862 290.427L145.925 307.845" stroke="#2E2E2E" stroke-width="3.37599" stroke-linecap="round"></path><path d="M163.527 321.536L183.973 321.784" stroke="#2E2E2E" stroke-width="3.37599" stroke-linecap="round"></path><path d="M154.648 309.837L165.633 288.155" stroke="#2E2E2E" stroke-width="3.37599" stroke-linecap="round"></path><path d="M149.055 249.144H175.498V250.114C175.498 253.169 173.021 255.645 169.967 255.645H154.586C151.531 255.645 149.055 253.169 149.055 250.114V249.144Z" stroke="#2E2E2E" stroke-width="2.97433"></path><path fill-rule="evenodd" clip-rule="evenodd" d="M128.758 341.361L34.9115 401.742C34.9115 401.742 8.47395 429.729 8.47395 429.729C8.47395 429.729 61.1214 418.95 61.1214 418.95L135.902 367.954L143.996 347.482L128.758 341.361Z" fill="#FDFAEC"></path><path fill-rule="evenodd" clip-rule="evenodd" d="M129.501 364.283L138.529 357.004C142.872 353.502 143.367 347.545 139.612 343.98V343.98C136.034 340.583 129.953 340.669 125.978 344.174L117.199 351.914" fill="#FDFAEC"></path><path d="M129.501 364.283L138.529 357.004C142.872 353.502 143.367 347.545 139.612 343.98V343.98C136.034 340.583 129.953 340.669 125.978 344.174L117.199 351.914" stroke="#2E2E2E" stroke-width="3.68144"></path><path fill-rule="evenodd" clip-rule="evenodd" d="M3.43497 431.115L-37.109 461.198L-80.0999 472.32L-93.6954 445.578C-93.6954 445.578 -63.9592 541.57 4.25475 510.914C72.4687 480.258 82.9943 428.278 111.998 403.849C135.741 383.851 149.346 370.31 150.918 368.825C157.291 362.804 149.802 350.241 139.596 355.957C131.979 360.223 127.068 363.457 127.068 363.457" fill="#FDFAEC"></path><path d="M3.43497 431.115L-37.109 461.198L-80.0999 472.32L-93.6954 445.578C-93.6954 445.578 -63.9592 541.57 4.25475 510.914C72.4687 480.258 82.9943 428.278 111.998 403.849C135.741 383.851 149.346 370.31 150.918 368.825C157.291 362.804 149.802 350.241 139.596 355.957C131.979 360.223 127.068 363.457 127.068 363.457" stroke="#2E2E2E" stroke-width="3.68144"></path><path fill-rule="evenodd" clip-rule="evenodd" d="M122.855 350.002C122.855 350.002 145.181 332.586 150.687 329.071C159.024 323.75 148.778 309.36 137.643 317.193C126.508 325.025 89.0159 354.739 89.0159 354.739C89.0159 354.739 98.8386 341.453 99.4239 333.996C102.575 322.015 87.4314 316.85 82.3936 329.419C75.1722 347.436 64.8641 362.231 56.5448 372.226C45.1235 386.833 27.8626 412.248 -47.6292 469.967" fill="#FDFAEC"></path><path d="M122.855 350.002C122.855 350.002 145.181 332.586 150.687 329.071C159.024 323.75 148.778 309.36 137.643 317.193C126.508 325.025 89.0159 354.739 89.0159 354.739C89.0159 354.739 98.8386 341.453 99.4239 333.996C102.575 322.015 87.4314 316.85 82.3936 329.419C75.1722 347.436 64.8641 362.231 56.5448 372.226C45.1235 386.833 27.8626 412.248 -47.6292 469.967" stroke="#2E2E2E" stroke-width="3.68144"></path><path fill-rule="evenodd" clip-rule="evenodd" d="M78.5091 178.044C90.3612 193.104 97.309 212.181 96.9899 232.836C96.6659 253.802 88.9093 272.91 76.2681 287.689L10.4895 232.189L78.5091 178.044Z" fill="#BA5AE2" stroke="#2E2E2E" stroke-width="3"></path><path fill-rule="evenodd" clip-rule="evenodd" d="M63.9791 163.507C69.3802 167.762 74.2599 172.645 78.5091 178.044L10.4895 232.189" fill="#F3CE47"></path><path d="M63.9791 163.507C69.3802 167.762 74.2599 172.645 78.5091 178.044L10.4895 232.189" stroke="#2E2E2E" stroke-width="3"></path><path fill-rule="evenodd" clip-rule="evenodd" d="M10.5001 231.5L11.8364 145.01C31.5422 145.315 49.6069 152.186 63.9791 163.507L10.5001 231.5Z" fill="#F3623F" stroke="#2E2E2E" stroke-width="3"></path><path fill-rule="evenodd" clip-rule="evenodd" d="M76.268 287.689C60.1079 306.583 35.9654 318.404 9.16386 317.99C-38.6031 317.252 -76.7275 277.931 -75.9895 230.164C-75.2515 182.397 -35.9305 144.272 11.8364 145.01L10.5001 231.5L76.268 287.689Z" fill="#FDFAEC" stroke="#2E2E2E" stroke-width="3"></path><path d="M274.5 215.982C274.5 232.816 260.845 246.465 244 246.465C227.155 246.465 213.5 232.816 213.5 215.982C213.5 199.148 227.155 185.5 244 185.5C260.845 185.5 274.5 199.148 274.5 215.982Z" fill="#FDFAEC" stroke="#2E2E2E" stroke-width="3"></path><path d="M253.762 207.416C253.559 207.312 253.362 207.197 253.171 207.072C252.616 206.705 252.107 206.273 251.654 205.784C250.523 204.489 250.101 203.176 249.945 202.257H249.951C249.821 201.494 249.875 201 249.883 201H244.731V220.924C244.731 221.191 244.731 221.456 244.719 221.717C244.719 221.749 244.716 221.779 244.714 221.814C244.714 221.829 244.714 221.844 244.711 221.859C244.711 221.862 244.711 221.866 244.711 221.87C244.657 222.585 244.428 223.275 244.044 223.881C243.66 224.486 243.133 224.988 242.51 225.342C241.86 225.712 241.126 225.906 240.378 225.905C237.978 225.905 236.032 223.947 236.032 221.53C236.032 219.112 237.978 217.155 240.378 217.155C240.833 217.155 241.284 217.226 241.716 217.367L241.723 212.121C240.411 211.951 239.078 212.055 237.809 212.427C236.54 212.798 235.361 213.428 234.348 214.278C233.459 215.05 232.713 215.97 232.141 216.999C231.924 217.374 231.103 218.881 231.004 221.326C230.941 222.714 231.358 224.152 231.557 224.747V224.759C231.682 225.109 232.166 226.304 232.956 227.311C233.592 228.118 234.344 228.828 235.188 229.416V229.404L235.2 229.416C237.694 231.111 240.46 231 240.46 231C240.939 230.981 242.543 231 244.364 230.137C246.384 229.18 247.534 227.754 247.534 227.754C248.268 226.903 248.853 225.932 249.261 224.884C249.728 223.658 249.883 222.188 249.883 221.601V211.031C249.946 211.068 250.778 211.619 250.778 211.619C250.778 211.619 251.978 212.387 253.849 212.888C255.191 213.244 257 213.319 257 213.319V208.204C256.366 208.273 255.079 208.073 253.762 207.416Z" fill="#2E2E2E"></path></g><path d="M80.5 60.9823C80.5 77.8164 66.8455 91.4646 50 91.4646C33.1545 91.4646 19.5 77.8164 19.5 60.9823C19.5 44.1482 33.1545 30.5 50 30.5C66.8455 30.5 80.5 44.1482 80.5 60.9823Z" fill="#FDFAEC" stroke="#2E2E2E" stroke-width="3"></path><path fill-rule="evenodd" clip-rule="evenodd" d="M63.4 70H57.5652V61.563C57.5652 59.3547 56.6525 57.8471 54.6455 57.8471C53.1104 57.8471 52.2567 58.8644 51.8593 59.8449C51.7103 60.1968 51.7336 60.6871 51.7336 61.1773V70H45.9531C45.9531 70 46.0276 55.0547 45.9531 53.6962H51.7336V56.255C52.075 55.1362 53.9222 53.5395 56.8698 53.5395C60.5268 53.5395 63.4 55.8846 63.4 60.9345V70V70ZM40.1075 51.6569H40.0703C38.2076 51.6569 37 50.4106 37 48.8308C37 47.2202 38.2433 46 40.1432 46C42.0416 46 43.2088 47.2171 43.2461 48.8262C43.2461 50.406 42.0416 51.6569 40.1075 51.6569V51.6569V51.6569ZM37.6659 53.6962H42.8115V70H37.6659V53.6962V53.6962Z" fill="#2E2E2E"></path><rect x="63.6285" y="75.5896" width="126.834" height="138.821" rx="2.09876" fill="#FDFAEC" stroke="#2E2E2E" stroke-width="3.1791"></rect><path d="M65.2025 190.567H188.852V212.821H65.2025V190.567Z" fill="#F2C713"></path><path d="M107.484 199.832C108.959 199.832 109.623 200.883 109.623 201.934C109.623 202.994 108.959 204.027 107.484 204.027H106.313V206.185H104.865V199.832H107.484ZM107.419 202.764C107.963 202.764 108.166 202.34 108.166 201.934C108.166 201.528 107.963 201.095 107.429 201.095H106.313V202.764H107.419ZM114.99 206.185L113.524 203.953H113.239V206.185H111.791V199.832H114.391C115.866 199.832 116.53 200.883 116.53 201.934C116.53 202.828 116.06 203.612 115.037 203.87L116.678 206.185H114.99ZM113.239 201.095V202.81H114.161C114.797 202.81 115.073 202.395 115.073 201.971C115.073 201.547 114.788 201.095 114.197 201.095H113.239ZM120.353 204.921H123.064V206.185H118.906V199.832H122.981V201.095H120.353V202.404H122.658V203.704H120.353V204.921ZM132.802 206.185H131.318L130.903 202.57L129.52 205.456H128.413L127.03 202.579L126.606 206.185H125.121L125.905 199.832H127.113L128.966 203.806L130.792 199.832H132.028L132.802 206.185ZM135.125 206.185V199.832H136.573V206.185H135.125ZM140.689 204.921H143.4V206.185H139.241V199.832H143.317V201.095H140.689V202.404H142.994V203.704H140.689V204.921ZM148.979 206.185L147.513 203.953H147.228V206.185H145.78V199.832H148.38C149.855 199.832 150.519 200.883 150.519 201.934C150.519 202.828 150.049 203.612 149.026 203.87L150.667 206.185H148.979ZM147.228 201.095V202.81H148.15C148.786 202.81 149.062 202.395 149.062 201.971C149.062 201.547 148.777 201.095 148.187 201.095H147.228Z" fill="#2E2E2E"></path><path d="M81.0313 173.919C78.2789 173.919 76.1351 171.679 76.1351 168.995C76.1351 166.284 78.2789 164.058 81.0313 164.058C82.5389 164.058 83.8528 164.694 84.6827 165.69L83.0783 167.031C82.5665 166.437 81.8473 166.077 81.0313 166.077C79.496 166.077 78.3204 167.405 78.3204 168.995C78.3204 170.558 79.496 171.983 81.0313 171.983C82.1378 171.983 82.9953 171.499 83.2719 170.669C83.2996 170.6 83.3273 170.531 83.3411 170.448H80.6578V168.691H85.7062C85.7062 172.301 83.7699 173.919 81.0313 173.919ZM90.3101 173.919C88.4705 173.919 86.8108 172.564 86.8108 170.531C86.8108 168.484 88.4705 167.128 90.3101 167.128C92.1496 167.128 93.8232 168.484 93.8232 170.531C93.8232 172.564 92.1496 173.919 90.3101 173.919ZM90.3101 172.024C91.0984 172.024 91.7347 171.416 91.7347 170.531C91.7347 169.645 91.0984 169.023 90.3101 169.023C89.5217 169.023 88.8854 169.645 88.8854 170.531C88.8854 171.416 89.5217 172.024 90.3101 172.024ZM98.5558 173.919C96.7163 173.919 95.0565 172.564 95.0565 170.531C95.0565 168.484 96.7163 167.128 98.5558 167.128C100.395 167.128 102.069 168.484 102.069 170.531C102.069 172.564 100.395 173.919 98.5558 173.919ZM98.5558 172.024C99.3442 172.024 99.9804 171.416 99.9804 170.531C99.9804 169.645 99.3442 169.023 98.5558 169.023C97.7674 169.023 97.1312 169.645 97.1312 170.531C97.1312 171.416 97.7674 172.024 98.5558 172.024ZM108.447 167.294H110.481V172.979C110.481 175.717 109.042 177.1 106.705 177.1C105.239 177.1 103.994 176.243 103.482 175.026L105.169 174.348C105.405 174.874 106.027 175.302 106.705 175.302C107.77 175.302 108.447 174.708 108.447 173.228V173.034C107.963 173.643 107.106 173.919 106.442 173.919C104.838 173.919 103.316 172.605 103.316 170.517C103.316 168.428 104.838 167.128 106.442 167.128C107.106 167.128 107.963 167.391 108.447 168V167.294ZM106.885 172.024C107.673 172.024 108.364 171.347 108.364 170.517C108.364 169.687 107.659 169.023 106.885 169.023C106.082 169.023 105.391 169.701 105.391 170.517C105.391 171.333 106.082 172.024 106.885 172.024ZM112.475 173.753V163.781H114.522V173.753H112.475ZM123.035 170.392C123.035 170.572 123.021 170.807 122.993 171.125H118.277C118.471 171.748 119.01 172.135 119.784 172.135C120.393 172.135 121.002 171.858 121.417 171.471L122.468 172.799C121.831 173.491 120.725 173.919 119.632 173.919C117.599 173.919 116.147 172.508 116.147 170.544C116.147 168.442 117.779 167.128 119.632 167.128C121.472 167.128 123.035 168.428 123.035 170.392ZM118.263 169.922H120.988C120.974 169.286 120.407 168.857 119.674 168.857C119.051 168.857 118.471 169.148 118.263 169.922ZM132.285 164.224C134.498 164.224 135.494 165.8 135.494 167.377C135.494 168.968 134.498 170.517 132.285 170.517H130.529V173.753H128.357V164.224H132.285ZM132.189 168.622C133.005 168.622 133.309 167.986 133.309 167.377C133.309 166.769 133.005 166.118 132.202 166.118H130.529V168.622H132.189ZM141.45 167.294H143.484V173.753H141.45V172.923C141.008 173.532 140.206 173.919 139.39 173.919C137.854 173.919 136.319 172.674 136.319 170.531C136.319 168.539 137.841 167.128 139.431 167.128C140.219 167.128 141.022 167.474 141.45 168.083V167.294ZM139.888 172.024C140.717 172.024 141.367 171.319 141.367 170.531C141.367 169.687 140.704 169.023 139.888 169.023C139.002 169.023 138.394 169.701 138.394 170.531C138.394 171.319 139.002 172.024 139.888 172.024ZM149.434 167.128C149.738 167.128 150.07 167.156 150.402 167.322L149.918 169.272C149.517 169.037 149.199 169.023 148.991 169.023C148.189 169.023 147.525 169.701 147.525 171.609V173.753H145.478V167.294H147.498V168.663C147.871 167.598 148.646 167.128 149.434 167.128ZM155.656 167.294V168.843H154.301V173.753H152.254V168.843H151.078V167.294H152.254V164.984H154.301V167.294H155.656ZM160.954 167.128C162.669 167.128 163.512 168.304 163.512 170.282V173.753H161.465V170.406C161.465 169.41 160.857 169.023 160.345 169.023C159.792 169.023 159.1 169.313 159.1 170.392V173.753H157.053V167.294H159.1V168.456C159.322 167.543 160.345 167.128 160.954 167.128ZM171.935 170.392C171.935 170.572 171.921 170.807 171.894 171.125H167.177C167.371 171.748 167.91 172.135 168.685 172.135C169.293 172.135 169.902 171.858 170.317 171.471L171.368 172.799C170.732 173.491 169.625 173.919 168.533 173.919C166.499 173.919 165.047 172.508 165.047 170.544C165.047 168.442 166.679 167.128 168.533 167.128C170.372 167.128 171.935 168.428 171.935 170.392ZM167.163 169.922H169.888C169.874 169.286 169.307 168.857 168.574 168.857C167.952 168.857 167.371 169.148 167.163 169.922ZM177.473 167.128C177.778 167.128 178.11 167.156 178.442 167.322L177.957 169.272C177.556 169.037 177.238 169.023 177.031 169.023C176.229 169.023 175.565 169.701 175.565 171.609V173.753H173.518V167.294H175.537V168.663C175.91 167.598 176.685 167.128 177.473 167.128Z" fill="#2E2E2E"></path><path d="M64.2848 189.721H189.413" stroke="#2E2E2E" stroke-width="3.1791" stroke-linecap="round"></path><path d="M152.388 121.024L152.124 119.902H127.724V130.229H142.302C140.789 137.416 133.765 141.2 128.028 141.2C123.854 141.2 119.453 139.444 116.541 136.621C115.004 135.109 113.781 133.307 112.942 131.321C112.102 129.335 111.662 127.203 111.648 125.046C111.648 120.696 113.603 116.345 116.447 113.483C119.292 110.621 123.588 109.02 127.859 109.02C132.751 109.02 136.257 111.617 137.568 112.802L144.907 105.502C142.754 103.61 136.84 98.8436 127.623 98.8436C120.512 98.8436 113.693 101.568 108.708 106.536C103.789 111.428 101.243 118.502 101.243 125.065C101.243 131.629 103.653 138.349 108.419 143.28C113.513 148.538 120.726 151.287 128.153 151.287C134.911 151.287 141.317 148.639 145.882 143.835C150.37 139.105 152.692 132.562 152.692 125.702C152.692 122.814 152.401 121.099 152.388 121.024Z" fill="#2E2E2E"></path></g><defs><clipPath id="clip0_80_166"><rect width="290" height="446" fill="white"></rect></clipPath><clipPath id="clip1_80_166"><rect width="339" height="323" fill="white" transform="translate(-22 138)"></rect></clipPath></defs></svg> 